PathFileType	4	(X/Y/Z)	Patient4_TMGait_0pt3_01_right_07.trc.trc
DataRate	CameraRate	NumFrames	NumMarkers	Units	OrigDataRate	OrigDataStartFrame	OrigNumFrames
52.044609665428	52.044609665428	5	33	mm	52.044609665428	53	       141
Frame#	Time	Sacral			L.Shoulder			Chest			R.Shoulder			Neck			R.ASIS			L.ASIS			R.Thigh.Superior			R.Thigh.Lateral			R.Thigh.Inferior			R.Patella			L.Thigh.Superior			L.Thigh.Lateral			L.Thigh.Inferior			L.Patella			L.Shank.Superior			L.Shank.Lateral			L.Shank.Inferior			R.Shank.Superior			R.Shank.Lateral			R.Shank.Inferior			R.Heel			R.Midfoot.Superior			R.Midfoot.Lateral			R.Toe			L.Heel			L.Midfoot.Lateral			L.Midfoot.Superior			L.Toe			L.Elbow			L.Wrist			R.Elbow			R.Wrist			
		X1	Y1	Z1	X2	Y2	Z2	X3	Y3	Z3	X4	Y4	Z4	X5	Y5	Z5	X6	Y6	Z6	X7	Y7	Z7	X8	Y8	Z8	X9	Y9	Z9	X10	Y10	Z10	X11	Y11	Z11	X12	Y12	Z12	X13	Y13	Z13	X14	Y14	Z14	X15	Y15	Z15	X16	Y16	Z16	X17	Y17	Z17	X18	Y18	Z18	X19	Y19	Z19	X20	Y20	Z20	X21	Y21	Z21	X22	Y22	Z22	X23	Y23	Z23	X24	Y24	Z24	X25	Y25	Z25	X26	Y26	Z26	X27	Y27	Z27	X28	Y28	Z28	X29	Y29	Z29	X30	Y30	Z30	X31	Y31	Z31	X32	Y32	Z32	X33	Y33	Z33	

53	12.649142857143	823.746499213129	995.026880759566	613.839773430092	1020.334102519742	1415.263077835139	428.033017238407	1119.913151617730	1346.435326829034	590.653721044322	1039.868156243422	1426.667737292891	763.315128257803	1009.783207288066	1482.313416162470	586.178611589471	1056.734951682801	927.063057012574	726.919874005902	1037.834264810589	955.798870980640	453.124818226584	1105.470221878289	730.849295923777	681.242843533817	1028.591842280917	613.219479277668	730.531718299897	1106.531926601610	568.921115595856	645.524285343758	1108.610580254340	473.174662973954	645.273011616666	1120.953079161636	771.747732603138	490.238291284027	1084.328093776967	646.832699991940	408.475778426073	1177.463048547118	585.437414619358	484.161666826516	1199.888359365874	505.945218181542	473.672997104708	1158.756591223277	434.469127786175	452.769732177041	1050.284134193759	342.504920466050	392.340061310696	1093.625915692567	214.706704063632	437.701913169635	1062.318425715677	387.150818637812	647.593932993922	976.201760116734	293.011010795418	705.340452122306	998.567629425502	196.642098123483	636.867267784949	840.682149834464	44.932492362810	603.016968990132	1012.085375675829	96.481924823535	642.889065310261	921.777522069378	37.805957742794	679.244821333990	1130.403274935080	41.544181121415	675.678926768362	951.482624420786	67.351962242026	463.033862644553	1022.634874442901	63.042677604625	380.520265998076	1112.493972591376	115.904943035360	407.200988137929	1232.738388670694	56.939329614140	369.614910067351	969.274343037989	1059.890549439620	327.885208752535	997.191594233041	800.205719167533	329.262795607900	1069.730384121604	1092.717646114936	911.119324727227	1313.735196655643	1017.501036651814	941.147557532535	
54	12.668357142857	822.243591949402	994.447115988586	616.910432660112	1016.514872287389	1413.973539238866	427.892882321185	1118.558349215310	1345.340538348817	589.021541883560	1041.559926741905	1426.182168518139	762.784923619567	1008.746372011182	1481.463549110102	585.901332626590	1056.280873722097	926.082458042089	727.166054753648	1034.286590994593	955.147738752039	453.572561138787	1104.380047639847	729.814095184988	681.101488960588	1027.686204984298	612.098853179910	730.598014823540	1105.160079005480	567.858925959850	645.102117362483	1107.039775560652	471.738464878522	644.776043704226	1118.232165047256	772.379139311134	490.123451323086	1082.488202618387	647.594860655418	407.901797439956	1176.307280020012	586.866812812860	483.161194613757	1200.428029580983	509.031513148077	472.715760334894	1162.276984295643	436.895797545030	452.314123137400	1058.793001405776	339.545490691816	391.536054957243	1107.898280520557	213.893656096969	437.925606949724	1059.747594235008	386.020977081514	647.268963568748	972.922385647792	292.598773947874	705.207626993104	994.090508705435	196.067803244882	636.703069315781	835.014855933727	45.112111674954	603.138286557090	1006.409704794746	96.392914463549	642.837910430813	916.074513908003	37.906715755914	679.323344991685	1124.658093162499	41.274308562660	675.745452676085	972.374037465976	60.678927847243	463.065767359830	1044.567245567631	58.237195734511	381.426740442296	1132.013158022434	114.920998326896	408.447754656224	1254.943655500790	60.247146092267	373.012451332964	952.982358175165	1060.231708907263	329.973835631168	970.170323907121	799.846167255650	333.267968536248	1081.018553392043	1093.447081619738	910.015002622921	1329.137465633118	1031.826875507770	933.605265937188	
55	12.687571428571	820.975026824354	994.256221311115	619.653171054042	1012.609489031668	1413.236403652096	427.727709990559	1117.166214621644	1344.718470515205	587.243951476832	1043.237417083994	1426.047609888467	762.105698581458	1007.597231953371	1481.008419875140	585.579180851161	1055.901903785269	925.406403467598	727.114418140595	1031.024810746969	954.908917075037	453.764993619946	1102.944725513112	728.872065327607	680.763702482235	1026.231591540826	611.260627285927	730.553977042070	1103.117340601385	566.909413989982	644.581285937700	1104.661538662781	470.530747709842	644.214347871452	1115.543869846208	773.095981893199	489.741684763105	1080.346116004445	648.476628488833	407.014563881874	1174.687812946924	588.139620527466	481.788401068383	1200.199447316725	511.970002595971	471.478019758288	1164.827440985116	439.382423510321	451.551299751897	1066.409254499636	337.289802432219	390.110007427712	1120.550388227041	213.874703234375	437.623379057722	1056.563666488742	385.135953381877	646.922746243452	969.188553824973	292.308495622086	705.093841635783	989.353241256834	195.646840316166	636.568398076314	829.319315734885	45.290935273551	603.268032463647	1000.713558787703	96.320667310467	642.810257430049	910.355309258529	38.009963333930	679.424173053111	1118.897479690765	41.050285012111	675.808286555531	991.259677097177	55.645708284432	462.139338788231	1064.625333833528	54.854838166425	381.573974511651	1149.626184974266	114.876432884487	409.170255329910	1274.894765980467	64.110798584566	376.180164832736	936.792680038353	1061.615871599626	331.943444406805	945.043948302026	801.130543935429	337.242621297038	1092.455315062460	1094.820805490788	908.504148753370	1343.699922744087	1046.709190193622	925.346400193234	
56	12.706785714286	819.946762059662	994.450742217557	622.059131745997	1008.641361244921	1413.050572072799	427.535822063570	1115.739777430748	1344.582190839557	585.340521414937	1044.867939592569	1426.276650032237	761.283085754875	1006.325569582925	1480.952793923325	585.214697250299	1055.619932560091	925.035817869996	726.761315412408	1028.053470510322	955.095188633214	453.696031920744	1101.166949565692	728.032326150017	680.206468818379	1024.250296871205	610.713175634056	730.408526481818	1100.410194771691	566.078979129571	643.967083388891	1101.476792155424	469.562738954593	643.601226399181	1112.935340186880	773.896967358687	489.076219466481	1077.893896451204	649.460080905114	405.839938301647	1172.617027868299	589.255706166096	480.050608609819	1199.185888428491	514.702621660917	469.973155500068	1166.360278344109	441.844792400560	450.475083124812	1072.926478633491	335.681343331619	388.118734778860	1131.363313158838	214.496266202355	436.799570164540	1052.766455416476	384.498154211554	646.565200615937	965.003859963085	292.138863574901	705.014069584088	984.353273518157	195.376354439987	636.468300856304	823.590570108103	45.464363927596	603.402276551379	994.994049477359	96.267704748731	642.810984777819	904.616964774602	38.109345098749	679.543936327496	1113.122155723294	40.875159009911	675.865946990783	1007.814728777942	52.022973376773	460.340558372072	1082.424313458959	52.728000968936	380.969471616635	1165.016985014116	115.632131410985	409.317520101872	1292.305153173157	68.413074990203	378.903092528769	921.047373380558	1063.947941321731	333.840186212869	921.936243471091	803.706504227713	341.112114440272	1103.937408397530	1096.869393867582	906.602534488098	1357.330096912552	1062.065094081672	916.469705847200	
57	12.726000000000	819.150687112993	994.991057947872	624.121897607203	1004.647054080002	1413.372034706664	427.306786155894	1114.285437674220	1344.903586235648	583.330245864962	1046.415541600220	1426.843987978121	760.319482120088	1004.931739447627	1481.264940765570	584.805266859900	1055.453676855256	924.946164828340	726.111921220340	1025.362732845787	955.670411355077	453.365969486334	1099.074877328778	727.293807064986	679.419980421398	1021.795816430363	610.443676061670	730.174567046491	1097.088789949220	565.362536334866	643.274560610781	1097.539409159949	468.830262459201	642.959273905749	1110.438837982694	774.747059394677	488.105292065701	1075.114083190346	650.494923617370	404.406696654680	1170.112393283646	590.202854834573	477.954291702815	1197.386164506105	517.155802607646	468.207007626872	1166.853647572532	444.174300941564	449.078932565113	1078.155636349464	334.607484643440	385.652615932134	1140.177792177332	215.556877390900	435.479605633305	1048.396790182542	384.092015500852	646.208320471582	960.400925125406	292.079583078852	704.980534777249	979.105648070148	195.243072833038	636.406697959019	817.827395415901	45.627870792916	603.538552623353	989.251090215015	96.234937541474	642.843996553638	898.858429216749	38.197838405824	679.676628017576	1107.333343904784	40.746663072403	675.916292009763	1021.805413301310	49.521014157196	457.823516708643	1097.643872088361	51.617299330979	379.667970844484	1177.938186347491	116.987103003425	408.860214070020	1306.949839706010	72.975596269459	380.959129907692	906.058148295742	1067.064860422150	335.693007913784	900.929316588862	807.217348361666	344.814053281951	1115.359015746512	1099.575961739433	904.325152859671	1369.958181404518	1077.773764310918	907.080560844414	
